<svg id="Capa_1" enable-background="new 0 0 512 512" height="512" viewBox="0 0 512 512" width="512" xmlns="http://www.w3.org/2000/svg"><path d="m443.288 512h-325.186c-5.687 0-10.297-4.61-10.297-10.297v-491.406c.001-5.687 4.611-10.297 10.297-10.297h325.186c13.648 0 24.712 11.064 24.712 24.712v462.577c0 13.647-11.064 24.711-24.712 24.711z" fill="#f4511e"/><path d="m430.574 480.579h-352.194c-2.209 0-4-1.791-4-4v-441.158c0-2.209 1.791-4 4-4h352.194c2.209 0 4 1.791 4 4v441.159c0 2.209-1.791 3.999-4 3.999z" fill="#fbf2df"/><path d="m379.482 512h-310.77c-13.648 0-24.712-11.064-24.712-24.712v-462.576c0-13.648 11.064-24.712 24.712-24.712h310.771c13.648 0 24.712 11.064 24.712 24.712v462.577c-.001 13.647-11.065 24.711-24.713 24.711z" fill="#ff7043"/><path d="m95.456 512h-26.744c-13.648 0-24.712-11.064-24.712-24.712v-462.576c0-13.648 11.064-24.712 24.712-24.712h26.745v512z" fill="#80deea"/><path d="m379.495 0h-30.874c13.641 0 24.699 11.069 24.699 24.724v462.551c0 13.655-11.058 24.724-24.699 24.724h30.874c13.641 0 24.699-11.069 24.699-24.724v-462.551c0-13.655-11.058-24.724-24.699-24.724z" fill="#ff5722"/><path d="m243.638 135.469c-32.947 0-59.751 26.948-59.751 60.07v76.944c0 8.534 6.919 15.453 15.453 15.453s15.453-6.919 15.453-15.453v-45.328h57.69v45.328c0 8.534 6.918 15.453 15.453 15.453s15.453-6.919 15.453-15.453v-76.944c-.001-33.122-26.804-60.07-59.751-60.07zm-28.845 60.78v-.71c0-16.081 12.94-29.165 28.845-29.165s28.845 13.083 28.845 29.165v.71z" fill="#fdd835"/><g fill="#80deea"><path d="m147.831 338.703h189.553c4.142 0 7.5-3.358 7.5-7.5s-3.358-7.5-7.5-7.5h-189.553c-4.142 0-7.5 3.358-7.5 7.5s3.358 7.5 7.5 7.5z"/><path d="m337.384 354.609h-189.553c-4.142 0-7.5 3.358-7.5 7.5s3.358 7.5 7.5 7.5h189.553c4.142 0 7.5-3.358 7.5-7.5s-3.358-7.5-7.5-7.5z"/></g></svg>