<?xml version="1.0" encoding="iso-8859-1"?>
<!-- Generator: Adobe Illustrator 19.0.0, SVG Export Plug-In . SVG Version: 6.00 Build 0)  -->
<svg version="1.1" id="Layer_1" xmlns="http://www.w3.org/2000/svg" xmlns:xlink="http://www.w3.org/1999/xlink" x="0px" y="0px"
	 viewBox="0 0 512 512" style="enable-background:new 0 0 512 512;" xml:space="preserve">
<rect x="10.199" y="10.199" style="fill:#FFF785;" width="491.602" height="491.602"/>
<g>
	<path style="fill:#DB006E;" d="M501.801,512H10.199C4.566,512,0,507.434,0,501.801V10.199C0,4.566,4.566,0,10.199,0h491.602
		C507.434,0,512,4.566,512,10.199v491.602C512,507.434,507.434,512,501.801,512z M20.398,491.602h471.203V20.398H20.398V491.602z"/>
	<path style="fill:#DB006E;" d="M471.203,480.382c-5.633,0-10.199-4.566-10.199-10.199V365.131c0-5.633,4.566-10.199,10.199-10.199
		c5.633,0,10.199,4.566,10.199,10.199v105.052C481.402,475.816,476.836,480.382,471.203,480.382z"/>
	<path style="fill:#DB006E;" d="M471.203,342.693c-5.633,0-10.199-4.566-10.199-10.199v-7.139c0-5.633,4.566-10.199,10.199-10.199
		c5.633,0,10.199,4.566,10.199,10.199v7.139C481.402,338.127,476.836,342.693,471.203,342.693z"/>
</g>
<polygon style="fill:#FF7099;" points="434.486,157.576 390.37,113.459 193.521,310.309 121.63,238.418 77.514,282.534 
	193.521,398.541 "/>
<path style="fill:#DB006E;" d="M193.521,408.74c-2.705,0-5.3-1.075-7.212-2.987L70.302,289.745c-3.983-3.983-3.983-10.441,0-14.424
	l44.116-44.116c1.912-1.912,4.507-2.987,7.212-2.987c2.705,0,5.3,1.075,7.212,2.987l64.678,64.679l189.638-189.638
	c3.983-3.983,10.441-3.983,14.425,0l44.116,44.116c3.983,3.983,3.983,10.441,0,14.424L200.733,405.753
	C198.82,407.665,196.226,408.74,193.521,408.74z M91.938,282.534l101.583,101.583l226.542-226.542l-29.692-29.692L200.733,317.521
	c-1.912,1.912-4.507,2.987-7.212,2.987s-5.3-1.075-7.212-2.987l-64.678-64.679L91.938,282.534z"/>
<g>
</g>
<g>
</g>
<g>
</g>
<g>
</g>
<g>
</g>
<g>
</g>
<g>
</g>
<g>
</g>
<g>
</g>
<g>
</g>
<g>
</g>
<g>
</g>
<g>
</g>
<g>
</g>
<g>
</g>
</svg>
