<svg id="Layer_1" enable-background="new 0 0 256 256" height="512" viewBox="0 0 256 256" width="512" xmlns="http://www.w3.org/2000/svg"><path d="m193.5 248h-131c-6.627 0-12-5.373-12-12v-157.9c0-6.627 5.373-12 12-12h131c6.627 0 12 5.373 12 12v157.9c0 6.627-5.373 12-12 12z" fill="#e0ebfc"/><path d="m193.5 250h-131c-7.72 0-14-6.28-14-14v-157.9c0-7.72 6.28-14 14-14h131c7.72 0 14 6.28 14 14v157.9c0 7.72-6.28 14-14 14zm-131-181.9c-5.514 0-10 4.486-10 10v157.9c0 5.514 4.486 10 10 10h131c5.514 0 10-4.486 10-10v-157.9c0-5.514-4.486-10-10-10z" fill="orangered"/><path d="m190.512 8h-125.024c-3.107 0-5.625 2.518-5.625 5.625v37.969c0 3.107 2.518 5.625 5.625 5.625h46.647c.965 0 1.871.464 2.434 1.247l10.993 15.266c1.199 1.664 3.676 1.664 4.875 0l10.993-15.266c.564-.783 1.47-1.247 2.434-1.247h46.647c3.107 0 5.625-2.518 5.625-5.625v-37.969c.001-3.107-2.518-5.625-5.624-5.625z" fill="#6bdddd"/><path d="m102.088 16.966h-18.438c-1.192 0-2.144.298-2.829.886-.72.617-1.101 1.488-1.101 2.517 0 .992.363 1.846 1.051 2.47.669.605 1.638.913 2.879.913h5.328v19.801c0 1.438.361 2.56 1.075 3.334.734.797 1.688 1.201 2.835 1.201 1.133 0 2.076-.4 2.806-1.191.707-.767 1.065-1.892 1.065-3.344v-19.802h5.328c1.235 0 2.207-.305 2.888-.904.707-.623 1.081-1.48 1.081-2.479 0-.993-.367-1.851-1.061-2.479-.676-.613-1.653-.923-2.907-.923z" fill="orangered"/><path d="m139.059 40.958c-.658-.532-1.204-.978-1.637-1.338.591-1.041 1.062-2.017 1.404-2.906.452-1.176.672-2.088.672-2.791 0-.897-.354-1.701-1.021-2.323-.657-.612-1.433-.923-2.303-.923-.95 0-1.742.357-2.291 1.034-.423.523-.849 1.314-1.301 2.419-.104.257-.198.482-.282.681-.124-.135-.25-.274-.378-.419-.514-.578-1.047-1.2-1.599-1.868-.342-.413-.701-.845-1.078-1.293 1.479-.962 2.651-1.926 3.495-2.873 1.128-1.264 1.699-2.77 1.699-4.474 0-1.247-.347-2.458-1.031-3.6-.688-1.148-1.727-2.084-3.088-2.779-1.334-.682-2.92-1.027-4.713-1.027-1.797 0-3.395.329-4.748.977-1.39.666-2.465 1.588-3.196 2.739-.731 1.154-1.103 2.448-1.103 3.847 0 1.174.291 2.325.866 3.423.394.752.928 1.584 1.593 2.484-.713.404-1.367.819-1.953 1.239-.888.635-1.649 1.32-2.266 2.035-.639.74-1.142 1.582-1.494 2.501-.355.925-.535 1.948-.535 3.044 0 1.146.237 2.286.704 3.389.47 1.106 1.193 2.124 2.15 3.023.953.896 2.155 1.614 3.572 2.134 1.399.514 2.991.774 4.729.774 1.347 0 2.591-.134 3.699-.398 1.118-.267 2.184-.682 3.167-1.233.737-.413 1.463-.92 2.166-1.512 1.529 1.243 2.534 2.025 3.061 2.384.74.504 1.527.76 2.341.76.86 0 1.64-.325 2.318-.967.684-.646 1.045-1.489 1.045-2.436 0-.736-.194-1.355-.576-1.84-.2-.255-.619-.699-2.088-1.887zm-14.912-18.43c.418-.387.934-.574 1.577-.574s1.153.182 1.559.556c.387.356.566.769.566 1.296 0 .553-.187.993-.588 1.385-.428.417-1.088.928-1.97 1.52-.288-.363-.537-.681-.746-.954-.3-.391-.553-.788-.751-1.182-.155-.306-.234-.578-.234-.808.001-.475.187-.869.587-1.239zm3.082 18.569c-.481.33-.995.587-1.527.764-.521.174-1.065.262-1.618.262-.544 0-1.068-.101-1.56-.299-.488-.196-.904-.475-1.273-.849-.374-.38-.661-.792-.852-1.225-.186-.422-.276-.852-.276-1.315 0-.815.244-1.497.746-2.084.46-.538 1.131-1.091 2-1.651 1.067 1.285 2.004 2.384 2.789 3.274.729.825 1.532 1.661 2.397 2.494-.282.234-.557.444-.826.629z" fill="(0deg, #e94b0dd8 0%, #db6708b2 100%"/><path d="m175.234 35.042c-.687-.668-1.519-1.006-2.475-1.006-1.409 0-2.166.601-2.552 1.104-.433.564-.794 1.286-1.063 2.11-.513 1.402-1.27 2.47-2.251 3.174-.987.708-2.18 1.053-3.646 1.053-1.337 0-2.51-.315-3.486-.938-.967-.615-1.73-1.576-2.272-2.856-.569-1.347-.858-3.085-.858-5.167 0-3.09.642-5.479 1.907-7.1 1.225-1.567 2.829-2.33 4.905-2.33 1.284 0 2.365.296 3.213.879.884.607 1.674 1.56 2.349 2.828.513.965.982 1.644 1.437 2.073.562.532 1.354.802 2.357.802.938 0 1.779-.375 2.434-1.083.643-.696.969-1.517.969-2.437 0-1.417-.548-2.909-1.629-4.436-1.054-1.487-2.575-2.745-4.521-3.74-1.942-.993-4.179-1.496-6.646-1.496-2.02 0-3.953.366-5.745 1.088-1.803.727-3.397 1.801-4.74 3.192-1.341 1.391-2.384 3.081-3.1 5.026-.708 1.925-1.067 4.124-1.067 6.537 0 1.48.142 2.904.422 4.23.282 1.335.712 2.61 1.278 3.79.567 1.184 1.264 2.27 2.075 3.235.913 1.067 1.933 1.941 3.028 2.6 1.095.657 2.326 1.146 3.658 1.455 1.307.302 2.77.455 4.347.455 2.118 0 4.011-.349 5.626-1.037 1.618-.689 2.973-1.605 4.027-2.725 1.041-1.104 1.819-2.255 2.313-3.421.5-1.181.753-2.308.753-3.349-.002-.976-.363-1.845-1.047-2.51z" fill="orangered"/><g fill="orangered"><path d="m174.279 96.75h-92.558c-3.314 0-6-2.686-6-6 0-3.314 2.686-6 6-6h92.559c3.314 0 6 2.686 6 6-.001 3.314-2.687 6-6.001 6z"/><path d="m188.5 121.5h-121c-2.209 0-4-1.791-4-4s1.791-4 4-4h121c2.209 0 4 1.791 4 4s-1.791 4-4 4z"/><path d="m188.5 139.5h-121c-2.209 0-4-1.791-4-4s1.791-4 4-4h121c2.209 0 4 1.791 4 4s-1.791 4-4 4z"/><path d="m188.5 157.5h-121c-2.209 0-4-1.791-4-4s1.791-4 4-4h121c2.209 0 4 1.791 4 4s-1.791 4-4 4z"/><path d="m188.5 175.5h-121c-2.209 0-4-1.791-4-4s1.791-4 4-4h121c2.209 0 4 1.791 4 4s-1.791 4-4 4z"/><path d="m188.5 193.5h-121c-2.209 0-4-1.791-4-4s1.791-4 4-4h121c2.209 0 4 1.791 4 4s-1.791 4-4 4z"/></g><path d="m81.25 228.25h-10.75c-1.657 0-3-1.343-3-3v-10.75c0-1.657 1.343-3 3-3h10.75c1.657 0 3 1.343 3 3v10.75c0 1.657-1.343 3-3 3z" fill="orangered"/><path d="m157 222.875h-60c-1.657 0-3-1.343-3-3s1.343-3 3-3h60c1.657 0 3 1.343 3 3s-1.343 3-3 3z" fill="orangered"/><path d="m128 76.98c-1.604 0-3.122-.777-4.061-2.079l-10.993-15.267c-.188-.261-.491-.416-.812-.416h-46.646c-4.204 0-7.625-3.421-7.625-7.625v-37.968c0-4.204 3.421-7.625 7.625-7.625h125.023c4.204 0 7.625 3.421 7.625 7.625v37.969c0 4.204-3.421 7.625-7.625 7.625h-46.646c-.32 0-.624.155-.812.416l-10.993 15.267c-.938 1.301-2.456 2.078-4.06 2.078zm-62.512-66.98c-1.999 0-3.625 1.626-3.625 3.625v37.969c0 1.999 1.626 3.625 3.625 3.625h46.646c1.604 0 3.12.777 4.058 2.078l10.993 15.267c.261.362.622.417.814.417s.554-.055.814-.417l10.993-15.267c.938-1.301 2.454-2.078 4.058-2.078h46.646c1.999 0 3.625-1.626 3.625-3.625v-37.969c0-1.999-1.626-3.625-3.625-3.625z" fill="orangered"/><path d="m81.25 230.25h-10.75c-2.757 0-5-2.243-5-5v-10.75c0-2.757 2.243-5 5-5h10.75c2.757 0 5 2.243 5 5v10.75c0 2.757-2.243 5-5 5zm-10.75-16.75c-.552 0-1 .448-1 1v10.75c0 .552.448 1 1 1h10.75c.552 0 1-.448 1-1v-10.75c0-.552-.448-1-1-1z" fill="orangered"/><path d="m76.544 225c-.063 0-.125-.002-.188-.007-.704-.054-1.354-.402-1.786-.961l-5.044-6.5c-.847-1.091-.648-2.661.442-3.507 1.09-.848 2.662-.648 3.507.442l3.35 4.315 17.453-16.595c.998-.951 2.582-.913 3.534.089.951 1.001.912 2.583-.089 3.534l-19.456 18.5c-.466.445-1.084.69-1.723.69z" fill="orangered"/></svg>